Coordinates
version=1
nRows=9
nColumns=42
inDegrees=yes

Units are S.I. units (second, meters, Newtons, ...)
If the header above contains a line with 'inDegrees', this indicates whether rotational values are in degrees (yes) or radians (no).

endheader
time	pelvis_tilt	pelvis_list	pelvis_rotation	pelvis_tx	pelvis_ty	pelvis_tz	hip_flexion_r	hip_adduction_r	hip_rotation_r	knee_angle_r	knee_adduction_r	knee_angle_r_beta	ankle_angle_r	subtalar_angle_r	mtp_angle_r	hip_flexion_l	hip_adduction_l	hip_rotation_l	knee_angle_l	knee_adduction_l	knee_angle_l_beta	ankle_angle_l	subtalar_angle_l	mtp_angle_l	lumbar_extension	lumbar_bending	lumbar_rotation	arm_flex_r	arm_add_r	arm_rot_r	elbow_flex_r	pro_sup_r	wrist_flex_r	wrist_dev_r	arm_flex_l	arm_add_l	arm_rot_l	elbow_flex_l	pro_sup_l	wrist_flex_l	wrist_dev_l
      1.20000000	     19.56638755	      3.57001693	      0.33763189	     -0.79760429	      0.89919534	     -0.06271407	      7.81415463	     -8.90995293	    -17.85364622	     62.48658536	     -8.93819229	      1.09059665	     15.54990770	    -11.86884625	     -7.72358603	    -13.08430960	      7.75251625	     -2.27828540	     23.44219702	      1.51669939	      0.40914352	     22.76003955	      2.24444266	     -7.72358603	    -40.56839216	     -3.45193356	     -2.76436029	      4.30962120	     -4.14229529	    -25.28107551	     28.90894147	     90.00000001	      0.00000000	      0.00000000	     10.41464394	     -7.23491567	    -27.11029186	     38.13756997	     90.00000001	      0.00000000	      0.00000000
      1.21000000	     19.21492859	      3.72008312	      0.36259045	     -0.79063450	      0.89838546	     -0.06317423	      9.23288233	     -9.15841801	    -17.81491861	     60.75391790	     -8.45431605	      1.06035590	     15.43594274	    -11.51713705	     -7.72070260	    -13.25546103	      7.91449041	     -2.57706039	     23.36134100	      1.45858167	      0.40773232	     22.91641217	      2.36391834	     -7.72070260	    -40.33436913	     -3.55265413	     -3.01888103	      3.84887245	     -4.12608253	    -25.39251132	     28.84030308	     90.00000001	      0.00000000	      0.00000000	     10.81726836	     -7.49405090	    -26.94790397	     38.39161393	     90.00000001	      0.00000000	      0.00000000
      1.22000000	     19.65825908	      3.59819604	      0.37653915	     -0.78302577	      0.89922532	     -0.06338365	      9.31109457	     -8.84849159	    -17.82677649	     58.25968273	     -8.07114796	      1.01682328	     14.89428276	    -12.30019562	     -7.71348807	    -14.86111879	      7.85333603	     -2.62162599	     22.19862876	      1.22991147	      0.38743916	     23.82703579	      3.74794006	     -7.71348807	    -40.84210329	     -3.37257340	     -3.11616212	      3.77321802	     -4.04747808	    -27.09528144	     28.06052081	     90.00000001	      0.00000000	      0.00000000	     11.26764323	     -7.90340371	    -26.04193690	     38.12807645	     90.00000001	      0.00000000	      0.00000000
      1.23000000	     19.59748595	      3.54740691	      0.46312031	     -0.77579482	      0.89887991	     -0.06363943	     10.07238330	     -8.76225987	    -18.04239301	     56.02980306	     -7.68788206	      0.97790454	     14.44701507	    -12.58437440	     -7.70506443	    -15.42954038	      7.75363551	     -3.32221920	     21.98540135	      0.99783089	      0.38371764	     24.41898066	      4.86384361	     -7.70506443	    -40.87532934	     -3.25616111	     -3.23937940	      3.47561294	     -3.95831522	    -28.35873842	     27.81120130	     90.00000001	      0.00000000	      0.00000000	     11.67451457	     -8.20010210	    -25.47839345	     38.28260865	     90.00000001	      0.00000000	      0.00000000
      1.24000000	     19.46277172	      3.48966909	      0.56986081	     -0.76858149	      0.89831249	     -0.06388534	     10.85048161	     -8.66726614	    -18.23259885	     53.76670693	     -7.25426358	      0.93840606	     13.99306289	    -12.73852156	     -7.69479829	    -15.85260947	      7.61455440	     -4.20255816	     21.88763997	      0.74332413	      0.38201138	     25.08893826	      6.35991759	     -7.69479829	    -40.82199821	     -3.13487604	     -3.35974812	      3.13093682	     -3.90379267	    -29.39456850	     27.60223133	     90.00000001	      0.00000000	      0.00000000	     12.09956110	     -8.46924709	    -25.04778996	     38.42069602	     90.00000001	      0.00000000	      0.00000000
      1.25000000	     19.34188835	      3.53865799	      0.68444815	     -0.76137955	      0.89769851	     -0.06414438	     11.55070565	     -8.72901691	    -18.47871000	     51.48121400	     -6.78897916	      0.89851669	     13.69420175	    -12.79236580	     -7.68765252	    -16.31260202	      7.59541284	     -4.94363614	     21.74591560	      0.51693279	      0.37953783	     25.70025014	      7.55014523	     -7.68765252	    -40.78719360	     -3.11554945	     -3.56410609	      2.76617849	     -3.89918702	    -29.93769028	     27.34224972	     90.00000001	      0.00000000	      0.00000000	     12.55855529	     -8.74997834	    -24.73176604	     38.42412328	     90.00000001	      0.00000000	      0.00000000
      1.26000000	     19.22420646	      3.44858907	      0.82418668	     -0.75413714	      0.89705537	     -0.06420964	     12.13677868	     -8.57766880	    -18.81846133	     49.06083439	     -6.37522188	      0.85627309	     13.26047985	    -12.76758310	     -7.67884538	    -16.70542162	      7.34641366	     -6.03996512	     21.75152516	      0.27007934	      0.37963573	     26.43527904	      9.32832567	     -7.67884538	    -40.75191853	     -2.97219713	     -3.65422571	      2.37764767	     -3.87053423	    -30.72429146	     27.20775896	     90.00000001	      0.00000000	      0.00000000	     12.99669952	     -9.00165042	    -24.37248695	     38.54271286	     90.00000001	      0.00000000	      0.00000000
      1.27000000	     18.77087427	      3.67799078	      0.93909692	     -0.74716663	      0.89569486	     -0.06446668	     13.21804254	     -8.84299819	    -18.96560986	     46.92735504	     -5.92185744	      0.81903685	     13.13701930	    -12.38784034	     -7.67570146	    -16.69696732	      7.64245813	     -6.53496504	     21.76574042	     -0.13172762	      0.37988383	     26.70607440	      9.66408221	     -7.67570146	    -40.40246456	     -3.14483330	     -3.97110194	      1.92282821	     -3.85313783	    -30.84622204	     27.17064547	     90.00000001	      0.00000000	      0.00000000	     13.41332709	     -9.26217112	    -24.21989375	     38.71653150	     90.00000001	      0.00000000	      0.00000000
      1.28000000	     18.92627385	      3.34156896	      1.15208715	     -0.73962776	      0.89544325	     -0.06428951	     13.22173180	     -8.34747164	    -19.53597848	     44.21641009	     -5.54915454	      0.77172194	     12.61715620	    -12.22305090	     -7.66655408	    -17.36786658	      6.90101280	     -8.21587256	     21.85932539	     -0.26089253	      0.38151720	     27.84246880	     12.70649719	     -7.66655408	    -40.60833153	     -2.74293281	     -3.89307809	      1.56721127	     -3.83842531	    -32.00090567	     26.93031109	     90.00000001	      0.00000000	      0.00000000	     13.89079285	     -9.46575681	    -23.76763477	     38.68819226	     90.00000001	      0.00000000	      0.00000000
